# xmcd CD database file
#
# Track frame offsets:
#	150
#	17007
#	31432
#	53265
#	66102
#	83070
#	103692
#	118762
#	140025
#
# Disc length: 2279 seconds
#
# Revision: 0
# Processed by: cddbd v1.5.1PL2 Copyright (c) Steve Scherf et al.
# Submitted via: CDex 1.60beta1
#
DISCID=7108e509
DTITLE=Lightnin Hopkins - The Blues legends
DYEAR=1900
DGENRE=Blues
TTITLE0=Fugitive Blues
TTITLE1=G String Guitar
TTITLE2=Grand Ma Told Grand Pa
TTITLE3=Rain
TTITLE4=Goin' To Dallas To See My Pony Run
TTITLE5=Last Night
TTITLE6=Keep Moving On
TTITLE7=That's My Story
TTITLE8=Dillon's Store
EXTD=
EXTT0=
EXTT1=
EXTT2=
EXTT3=
EXTT4=
EXTT5=
EXTT6=
EXTT7=
EXTT8=
PLAYORDER=
